<svg xmlns="http://www.w3.org/2000/svg" xmlns:xlink="http://www.w3.org/1999/xlink" fill="none" version="1.1" width="40" height="40" viewBox="0 0 40 40"><defs><clipPath id="master_svg0_45_254"><rect x="0" y="0" width="40" height="40" rx="0"/></clipPath></defs><g clip-path="url(#master_svg0_45_254)"><g><g><g><g><g><path d="M12.549050000000001,1.00383123C12.74174,1.0303578,12.89313,1.195432,12.91517,1.403245L12.979849999999999,2.0266900000000003C13.1723,3.88176,14.43759,5.40451,16.13581,5.82483L16.57208,5.93243C16.82375,5.99401,17.00163,6.23453,16.99999,6.51092C16.998350000000002,6.78731,16.817610000000002,7.02538,16.56521,7.0835L16.13581,7.18226C14.442440000000001,7.57393,13.17297,9.08177,12.983979999999999,10.92583L12.91517,11.6039C12.88824,11.8283,12.71094,11.9973,12.49957,12C12.28819,12.0025,12.107330000000001,11.8379,12.07559,11.6141L11.982,10.84633C11.763580000000001,9.04091,10.51202,7.57571,8.852193,7.18226L8.432404,7.0835C8.181444,7.02446,8.00199493,6.78738,8.0000162977,6.51222C7.99804031,6.23709,8.174062,5.99706,8.424147,5.9339L8.852193,5.82484C10.51656,5.40296,11.76436,3.92364,11.98751,2.10776L12.07422,1.394407C12.1049,1.14631,12.3173,0.9715972,12.549050000000001,1.00383123Z" fill="#000000" fill-opacity="1" style="mix-blend-mode:passthrough"/></g><g><path d="M18,14.3570556640625L4.42859,14.3570556640625C3.0867899999999997,14.3570556640625,2,15.4378456640625,2,16.7856456640625L2,35.5713556640625C2,36.9131556640625,3.0807,37.9999556640625,4.428599999999999,37.9999556640625L27.2143,37.9999556640625C28.5561,37.9999556640625,29.6429,36.9193556640625,29.6429,35.5714556640625L29.6429,22.9999956640625L27.2143,22.9999956640625L27.2143,34.3583556640625C27.2143,35.0285556640625,26.6715,35.5714556640625,26.0012,35.5714556640625L5.6429,35.5713556640625C4.9729,35.5713556640625,4.4298,35.0282556640625,4.4298,34.3583556640625L4.42981,17.9999956640625C4.42981,17.3299956640625,4.97289,16.7868656640625,5.64288,16.7868656640625L18,16.7868656640625L18,14.3570556640625Z" fill-rule="evenodd" fill="#000000" fill-opacity="1" style="mix-blend-mode:passthrough"/></g></g><g><g><path d="M35.0327,23.00278635C35.16116,23.0220784,35.26209,23.142133,35.27678,23.293269L35.3199,23.746683C35.4482,25.09583,36.29173,26.20328,37.42387,26.50897L37.71472,26.58722C37.8825,26.63201,38.00108,26.80693,37.99999,27.00795C37.9989,27.20896,37.87841,27.3821,37.71014,27.42437L37.42387,27.49619C36.29496,27.78104,35.44864,28.87765,35.32265,30.21879L35.27678,30.71191C35.25883,30.87516,35.14063,30.99805,34.99971,30.99998C34.85879,31.00184,34.73822,30.88213,34.717060000000004,30.719369999999998L34.65467,30.16097C34.50905,28.847929999999998,33.67468,27.782339999999998,32.568129,27.49619L32.288269,27.42437C32.120962,27.38143,32.00132995,27.209,32.0000108652,27.00889C31.99869354,26.808790000000002,32.116041,26.63423,32.282765,26.58829L32.568129,26.50898C33.67771,26.20215,34.50957,25.12628,34.65834,23.805642L34.71615,23.286842C34.7366,23.106407,34.8782,22.9793434,35.0327,23.00278635Z" fill="#000000" fill-opacity="1" style="mix-blend-mode:passthrough"/></g></g></g></g><g><path d="M9.5714111328125,26C11.2282611328125,26,12.5714111328125,24.65685,12.5714111328125,23C12.5714111328125,21.34315,11.2282611328125,20,9.5714111328125,20C7.9145611328125,20,6.5714111328125,21.34315,6.5714111328125,23C6.5714111328125,24.65685,7.9145611328125,26,9.5714111328125,26ZM9.5714111328125,22C10.1236911328125,22,10.5714111328125,22.44772,10.5714111328125,23C10.5714111328125,23.55228,10.1236911328125,24,9.5714111328125,24C9.0191311328125,24,8.5714111328125,23.55228,8.5714111328125,23C8.5714111328125,22.44772,9.0191311328125,22,9.5714111328125,22Z" fill-rule="evenodd" fill="#000000" fill-opacity="1"/></g><g><path d="M28.255719921875,29.4829290625L19.831919921875,31.0623890625L14.406119921875,27.1163190625L3.399960921875,30.944549062500002L2.742919921875,29.055559062500002L14.736719921875,24.8837890625L20.310919921875,28.9377290625L27.887119921875,27.5171790625L28.255719921875,29.4829290625Z" fill-rule="evenodd" fill="#000000" fill-opacity="1"/></g></g><g><g><g><path d="M22.97075,19.9981L20,19.9981L25.24067,5L28.91779,5L34,20L30.872700000000002,20L29.77692,16.835900000000002L24.066580000000002,16.835900000000002L22.97255,19.9981L22.97075,19.9981ZM24.84926,14.32273L28.994239999999998,14.32273L27.03913,7.91889L26.96088,7.91889L24.84926,14.32273Z" fill="#000000" fill-opacity="1" style="mix-blend-mode:passthrough"/></g></g></g></g></svg>