<svg xmlns="http://www.w3.org/2000/svg" xmlns:xlink="http://www.w3.org/1999/xlink" fill="none" version="1.1" width="40" height="40" viewBox="0 0 40 40"><defs><clipPath id="master_svg0_45_210"><rect x="0" y="0" width="40" height="40" rx="0"/></clipPath></defs><g clip-path="url(#master_svg0_45_210)"><g><path d="M10,6L15,6L15,9L10,9Q9.58579,9,9.29289,9.29289Q9,9.58579,9,10L9,16L6,16L6,10C6,7.79086,7.79086,6,10,6ZM25,6L25,9L30,9Q31,9,31,10L31,16L34,16L34,10C34,7.79086,32.2091,6,30,6L25,6ZM13,15.34959L13,23.1451L15.47571,23.1451L15.47571,23.1188L19.0427,23.1188L19.0427,28L21.6642,28L21.6642,23.1188L25.3057,23.1188L25.3057,23.1451L28,23.1451L28,15.34959L21.6642,15.34959L21.6642,13.64058C21.6642,13.13934,21.737000000000002,12.70651,21.8827,12.342120000000001C21.9219,12.27919,21.9468,12.20928,21.9555,12.136849999999999C21.9555,12.0907,21.7845,12.046140000000001,21.4455,12L18.9698,12L18.9698,15.34959L13,15.34959ZM15.474,21.2729L15.47402,17.2655L15.47571,17.2671L19.0427,17.2671L19.0427,21.2729L15.474,21.2729ZM25.3057,17.2671L25.3057,21.2729L25.3057,21.2745L21.6642,21.2745L21.6642,17.2671L25.3057,17.2671ZM10,31L15,31L15,34L10,34C7.79086,34,6,32.2091,6,30L6,25L9,25L9,30Q9,30.4142,9.29289,30.7071Q9.58579,31,10,31ZM25,31L25,34L30,34C32.2091,34,34,32.2091,34,30L34,25L31,25L31,30Q31,31,30,31L25,31Z" fill-rule="evenodd" fill="#000000" fill-opacity="1"/></g></g></svg>