<svg xmlns="http://www.w3.org/2000/svg" xmlns:xlink="http://www.w3.org/1999/xlink" fill="none" version="1.1" width="40" height="40" viewBox="0 0 40 40"><defs><clipPath id="master_svg0_73_054"><rect x="0" y="0" width="40" height="40" rx="0"/></clipPath></defs><g clip-path="url(#master_svg0_73_054)"><g><path d="M13,23C13,24.032400000000003,13.593942,24.6478,14.4859,25L17.7113,26C19.7922,26.8208,21.430889999999998,28.6698,22.185209999999998,30.9057L23.381700000000002,34.415099999999995C23.719900000000003,35.3774,24.5522,36,25.488599999999998,36C26.425,36,27.2834,35.3491,27.621499999999997,34.3868L28.8181,30.9057C29.5724,28.6698,31.2111,26.8208,33.292,26L36.517399999999995,25C37.4173,24.6628,37.9965,24.0355,38,23C38,21.9528,37.4018,21.390900000000002,36.517399999999995,21.023L33.292,19.7494C31.2187,18.93137,29.5819,16.31716,28.8181,14.066040000000001L27.621499999999997,10.58491C27.2798,9.627889,26.432299999999998,8.99812144,25.488599999999998,9.00000518223C24.5522,9.00000518223,23.719900000000003,9.622648,23.381700000000002,10.58491L22.185209999999998,14.066040000000001C21.42135,16.31717,19.78466,18.93138,17.71132,19.7494L14.48587,21.023C13.593916,21.3752,13,21.967599999999997,13,23Z" fill="#000000" fill-opacity="1" style="mix-blend-mode:passthrough"/></g><g><path d="M4,8.49424C4,8.914860000000001,4.237578,9.290479999999999,4.594362,9.433959999999999L5.88452,9.96436C6.71687,10.298739999999999,7.3723600000000005,11.01363,7.67409,11.92453L8.15269,13.3543C8.28795,13.7463,8.62089,14,8.99545,14C9.37001,14,9.71336,13.7348,9.84862,13.3428L10.32722,11.92453C10.62895,11.01363,11.28444,10.298739999999999,12.11679,9.96436L13.39654,9.433959999999999C13.75649,9.2966,13.99861,8.921890000000001,14,8.5C14,8.07338,13.7607,7.7044,13.40695,7.55451L12.11679,7.03564C11.28746,6.70238,10.63277,5.98107,10.32722,5.0639400000000006L9.84862,3.645704C9.71191,3.255807,9.3729,2.999234661,8.99545,3.00000211128C8.62089,3.00000211128,8.28795,3.2536709999999998,8.15269,3.645704L7.67409,5.0639400000000006C7.368539999999999,5.98107,6.71385,6.702389999999999,5.88452,7.03564L4.594362,7.55451C4.237578,7.69799,4,8.07362,4,8.49424Z" fill="#000000" fill-opacity="1" style="mix-blend-mode:passthrough"/></g><g><path d="M1,27.49633C1,27.764,1.142547,28.00304,1.356617,28.09434L2.13071,28.43187C2.63012,28.64465,3.02341,29.09958,3.20445,29.67925L3.49161,30.589100000000002C3.57277,30.83857,3.77254,31,3.99727,31C4.22201,31,4.42802,30.83124,4.50917,30.58176L4.79633,29.67925C4.9773700000000005,29.09958,5.37066,28.64465,5.87008,28.43187L6.63793,28.09434C6.8539,28.00693,6.99916,27.76847,7,27.5C7,27.22851,6.85642,26.99371,6.64417,26.89832L5.87008,26.56814C5.37247,26.35606,4.97966,25.89704,4.79633,25.31342L4.50917,24.410903C4.42715,24.162786,4.223739999999999,23.999512966,3.99727,24C3.77254,24,3.57277,24.161427,3.49161,24.410903L3.20445,25.31342C3.02112,25.89704,2.62831,26.35606,2.13071,26.56814L1.356617,26.89832C1.142547,26.98963,1,27.22866,1,27.49633Z" fill="#000000" fill-opacity="1" style="mix-blend-mode:passthrough"/></g></g></svg>