<svg xmlns="http://www.w3.org/2000/svg" xmlns:xlink="http://www.w3.org/1999/xlink" fill="none" version="1.1" width="40" height="40" viewBox="0 0 40 40"><defs><clipPath id="master_svg0_45_254"><rect x="0" y="0" width="40" height="40" rx="0"/></clipPath></defs><g clip-path="url(#master_svg0_45_254)"><g><g><path d="M15,6L10,6C7.79086,6,6,7.79086,6,10L6,16L9,16L9,10Q9,9.58579,9.29289,9.29289Q9.58579,9,10,9L15,9L15,6ZM15,31L10,31Q9.58579,31,9.29289,30.7071Q9,30.4142,9,30L9,25L6,25L6,30C6,32.2091,7.79086,34,10,34L15,34L15,31ZM25,34L25,31L30,31Q31,31,31,30L31,25L34,25L34,30C34,32.2091,32.2091,34,30,34L25,34ZM25,9L25,6L30,6C32.2091,6,34,7.79086,34,10L34,16L31,16L31,10Q31,9,30,9L25,9Z" fill-rule="evenodd" fill="#000000" fill-opacity="1"/></g></g><g><g><g><path d="M15.970749999999999,26.9983L13,26.9983L18.24067,13L21.91779,13L27,27L23.872700000000002,27L22.77692,24.0469L17.066580000000002,24.0469L15.97255,26.9983L15.970749999999999,26.9983ZM17.84926,21.70122L21.994239999999998,21.70122L20.03913,15.7243L19.96088,15.7243L17.84926,21.70122Z" fill="#000000" fill-opacity="1" style="mix-blend-mode:passthrough"/></g></g></g></g></svg>